<?xml version="1.0" standalone="no"?>
<!DOCTYPE svg PUBLIC "-//W3C//DTD SVG 20010904//EN"
 "http://www.w3.org/TR/2001/REC-SVG-20010904/DTD/svg10.dtd">
<svg version="1.0" xmlns="http://www.w3.org/2000/svg"
 width="260.000000pt" height="260.000000pt" viewBox="0 0 260.000000 260.000000"
 preserveAspectRatio="xMidYMid meet">
<metadata>
Created by potrace 1.11, written by Peter Selinger 2001-2013
</metadata>
<g transform="translate(0.000000,260.000000) scale(0.100000,-0.100000)"
fill="#000000" stroke="none">
<path d="M430 1860 c-44 -8 -69 -21 -96 -52 -43 -48 -45 -74 -29 -289 l8 -105
-28 -22 c-15 -12 -36 -22 -46 -22 -20 0 -21 -3 -23 -65 -2 -46 8 -65 35 -65
10 0 28 -10 40 -23 20 -21 20 -28 13 -132 -12 -174 -10 -218 12 -255 32 -56
64 -72 148 -78 l76 -5 0 67 0 66 -39 0 c-60 0 -65 12 -56 148 13 189 4 236
-51 265 l-25 13 26 14 c56 30 63 72 50 270 -9 138 -7 141 88 149 13 2 8 121
-5 122 -40 4 -67 4 -98 -1z"/>
<path d="M2075 1862 c-3 -3 -5 -31 -5 -63 0 -43 4 -58 16 -63 9 -3 20 -3 25 0
6 3 21 -2 35 -11 26 -17 26 -17 18 -113 -16 -203 -6 -261 50 -292 l26 -13 -31
-19 c-56 -34 -61 -66 -44 -286 8 -108 2 -122 -56 -122 l-39 0 0 -65 0 -65 60
0 c114 0 180 59 182 162 1 43 -10 217 -15 238 -1 3 2 19 6 37 4 22 16 37 37
48 16 8 33 14 37 13 5 -2 9 25 11 58 l3 62 -35 6 c-22 4 -40 15 -47 28 -12 21
-14 101 -4 148 13 62 8 196 -8 227 -21 40 -61 71 -101 78 -50 9 -115 13 -121
7z"/>
<path d="M1876 1709 c-84 -20 -127 -70 -140 -161 -7 -45 -9 -48 -37 -48 l-29
0 0 -65 c0 -36 3 -64 8 -64 4 1 18 1 32 0 l25 -1 -1 -213 0 -214 76 0 77 0 -1
204 c-1 113 2 210 6 216 4 6 24 12 45 12 l38 0 3 63 3 62 -46 0 c-43 0 -45 2
-45 28 0 37 12 52 45 58 41 7 40 6 40 70 -1 58 -1 59 -30 60 -17 1 -47 -2 -69
-7z"/>
<path d="M913 1494 c-20 -7 -48 -24 -63 -39 l-27 -26 1 33 1 33 -76 3 -76 3 0
-279 0 -278 75 0 76 1 1 166 c1 140 4 170 18 193 21 32 54 46 108 46 l39 0 0
79 c0 89 -2 91 -77 65z"/>
<path d="M1320 1500 c-38 -10 -88 -38 -93 -52 -3 -7 -6 2 -6 20 l-1 32 -75 0
-75 0 0 -279 0 -278 75 1 75 1 0 168 c0 194 9 229 67 253 44 19 105 8 135 -23
22 -24 23 -32 26 -212 l3 -188 75 1 75 0 -3 207 -3 206 -30 49 c-38 61 -95 95
-168 98 -28 1 -63 -1 -77 -4z"/>
</g>
</svg>
